<?xml version="1.0" encoding="UTF-8"?>
<svg width="1200px" height="151px" viewBox="0 0 1200 151" version="1.1" xmlns="http://www.w3.org/2000/svg" xmlns:xlink="http://www.w3.org/1999/xlink">
    <!-- Generator: Sketch 50.2 (55047) - http://www.bohemiancoding.com/sketch -->
    <title>Sydney</title>
    <desc>Created with Sketch.</desc>
    <defs></defs>
    <g id="Sydney" stroke="none" stroke-width="1" fill="none" fill-rule="evenodd">
        <path d="M1158.47751,148.196721 L1161.23326,148.196721 L1161.23326,137.067916 L1158.47751,137.067916 L1158.47751,148.196721 Z M1159.44575,134.725995 L1160.48846,135.793911 L1158.38441,135.793911 L1159.44575,134.725995 Z M1156.15002,134.163934 L1157.50927,132.796253 L1158.88714,134.163934 L1157.50927,135.531616 L1156.15002,134.163934 Z M1154.53008,135.793911 L1155.59141,134.725995 L1156.63414,135.793911 L1154.53008,135.793911 Z M1151.49502,148.196721 L1156.46655,148.196721 L1156.46655,137.067916 L1151.49502,137.067916 L1151.49502,148.196721 Z M1151.73709,134.725995 L1152.7798,135.793911 L1150.67575,135.793911 L1151.73709,134.725995 Z M1148.44136,134.163934 L1149.80061,132.796253 L1151.15986,134.163934 L1149.80061,135.531616 L1148.44136,134.163934 Z M1140.99338,148.196721 L1149.50269,148.196721 L1149.50269,137.067916 L1140.99338,137.067916 L1140.99338,148.196721 Z M1140.99338,135.569087 L1141.21681,135.793911 L1140.99338,135.793911 L1140.99338,135.569087 Z M1140.99338,133.901639 L1142.09195,132.796253 L1143.45121,134.163934 L1142.09195,135.531616 L1140.99338,134.426229 L1140.99338,133.901639 Z M1140.99338,132.571428 L1141.17957,132.571428 L1140.99338,132.758782 L1140.99338,132.571428 Z M1145.03391,132.571428 L1144.02842,133.583138 L1143.00433,132.571428 L1145.03391,132.571428 Z M1145.07115,135.793911 L1142.96709,135.793911 L1144.02842,134.725995 L1145.07115,135.793911 Z M1147.30554,134.163934 L1145.94628,135.531616 L1144.58702,134.163934 L1145.94628,132.796253 L1147.30554,134.163934 Z M1148.92547,135.793911 L1146.82142,135.793911 L1147.88275,134.725995 L1148.92547,135.793911 Z M1148.88823,132.571428 L1147.88275,133.583138 L1146.85866,132.571428 L1148.88823,132.571428 Z M1152.74256,132.571428 L1151.73709,133.583138 L1150.71298,132.571428 L1152.74256,132.571428 Z M1155.0142,134.163934 L1153.65494,135.531616 L1152.29568,134.163934 L1153.65494,132.796253 L1155.0142,134.163934 Z M1156.5969,132.571428 L1155.59141,133.583138 L1154.56732,132.571428 L1156.5969,132.571428 Z M1160.45122,132.571428 L1159.44575,133.583138 L1158.40303,132.571428 L1160.45122,132.571428 Z M1161.23326,135.419204 L1160.00434,134.163934 L1161.23326,132.908665 L1161.23326,135.419204 Z M1121.31209,127.681499 C1120.54867,127.606557 1119.46871,127.475409 1118.07221,127.344262 L1118.07221,122.023419 L1121.31209,123.503512 L1121.31209,127.681499 Z M1121.31209,133.264636 C1120.23212,133.114753 1119.17079,133.002341 1118.07221,132.871194 L1118.07221,131.484777 C1119.41285,131.597189 1120.51143,131.690866 1121.31209,131.765807 L1121.31209,133.264636 Z M1121.31209,134.763465 L1118.07221,142.332552 L1118.07221,133.676814 C1119.17079,133.807962 1120.23212,133.939109 1121.31209,134.070257 L1121.31209,134.763465 Z M1121.31209,147.091335 C1120.5859,146.360655 1119.52457,145.348945 1118.18393,144.112411 L1121.31209,136.824355 L1121.31209,147.091335 Z M1117.27155,127.269321 C1116.67572,127.213114 1116.04264,127.156909 1115.33508,127.100702 L1117.27155,122.716627 L1117.27155,127.269321 Z M1117.27155,132.777517 C1115.85644,132.608899 1114.44132,132.459016 1113.02621,132.309133 L1113.54756,131.11007 C1114.92544,131.222482 1116.1916,131.316158 1117.27155,131.409836 L1117.27155,132.777517 Z M1117.27155,143.250585 C1115.48404,141.620609 1113.28689,139.672131 1110.69871,137.498829 L1112.67243,133.077283 C1114.21789,133.245901 1115.74472,133.414519 1117.27155,133.583138 L1117.27155,143.250585 Z M1110.51252,132.852458 C1110.94077,132.889929 1111.38765,132.946136 1111.81591,132.983606 L1110.51252,135.962529 L1110.51252,132.852458 Z M1109.69324,126.632319 C1108.4457,126.519906 1107.10506,126.426229 1105.67133,126.332553 L1109.69324,119.119437 L1109.69324,126.632319 Z M1109.69324,131.953161 C1107.45884,131.747072 1105.20583,131.522248 1102.95281,131.334894 C1102.95281,131.316158 1102.93419,131.316158 1102.93419,131.316158 L1102.93419,131.241217 L1103.41832,130.360655 C1105.67133,130.510538 1107.77538,130.660421 1109.69324,130.810304 L1109.69324,131.953161 Z M1109.69324,136.674473 C1107.99882,135.269321 1106.13682,133.789227 1104.14449,132.252927 C1106.00649,132.40281 1107.84986,132.590163 1109.69324,132.777517 L1109.69324,136.674473 Z M1102.13353,126.088993 C1100.19706,125.957845 1098.13025,125.826697 1095.91447,125.69555 L1102.13353,115.035129 L1102.13353,126.088993 Z M1102.13353,130.697892 C1101.9101,130.548009 1101.66803,130.37939 1101.46322,130.210773 C1101.66803,130.229507 1101.9101,130.248243 1102.13353,130.266978 L1102.13353,130.697892 Z M922.860644,131.128805 C923.326144,130.754098 923.810262,130.398126 924.313001,130.042154 C945.595605,128.618266 978.422579,127.007026 1011.62196,127.606557 C1044.83994,127.007026 1077.66692,128.618266 1098.94953,130.042154 C1099.45226,130.398126 1099.91776,130.754098 1100.40188,131.128805 C1057.24083,127.531616 966.040312,127.531616 922.860644,131.128805 Z M921.147609,130.697892 L921.147609,130.266978 C921.371048,130.248243 921.575868,130.229507 921.817927,130.210773 C921.594488,130.37939 921.371048,130.548009 921.147609,130.697892 Z M920.346951,126.145199 C919.713873,126.18267 919.099414,126.220141 918.484956,126.276346 L913.867208,118.014051 L917.14432,116.496486 L917.18156,116.459016 C917.218799,116.440281 918.317376,115.728337 920.346951,114.54801 L920.346951,126.145199 Z M920.346951,131.316158 C920.346951,131.316158 920.328331,131.316158 920.328331,131.334894 C918.056697,131.522248 915.822303,131.747072 913.587909,131.953161 L913.587909,130.810304 C915.487143,130.660421 917.572578,130.510538 919.844212,130.360655 L920.346951,131.241217 L920.346951,131.316158 Z M913.587909,136.674473 L913.587909,132.777517 C915.412664,132.590163 917.274659,132.40281 919.136654,132.252927 C917.125699,133.789227 915.263705,135.269321 913.587909,136.674473 Z M912.768631,126.688524 C911.316275,126.800936 909.975639,126.913349 908.783962,127.007026 L906.326128,121.498829 L912.768631,118.519906 L912.768631,126.688524 Z M912.768631,132.046838 C912.191412,132.103044 911.651434,132.15925 911.111455,132.215456 L910.590097,131.035129 C911.279035,130.978922 912.005213,130.922716 912.768631,130.86651 L912.768631,132.046838 Z M912.768631,135.962529 L911.427995,132.983606 C911.893493,132.946136 912.321753,132.889929 912.768631,132.852458 L912.768631,135.962529 Z M905.990969,143.250585 L905.990969,133.583138 C907.517805,133.414519 909.063261,133.245901 910.590097,133.077283 L912.563811,137.498829 C909.975639,139.672131 907.778484,141.620609 905.990969,143.250585 Z M905.19031,127.344262 C903.793815,127.475409 902.732477,127.606557 901.969059,127.681499 L901.969059,123.503512 L905.19031,122.023419 L905.19031,127.344262 Z M905.19031,132.871194 C904.110353,133.002341 903.030396,133.114753 901.969059,133.264636 L901.969059,131.765807 C902.751097,131.690866 903.831054,131.597189 905.19031,131.484777 L905.19031,132.871194 Z M905.19031,142.332552 L901.969059,134.763465 L901.969059,134.070257 C903.030396,133.939109 904.110353,133.807962 905.19031,133.676814 L905.19031,142.332552 Z M901.969059,147.091335 L901.969059,136.824355 L905.078591,144.112411 C903.737954,145.348945 902.695237,146.360655 901.969059,147.091335 Z M905.990969,131.409836 C907.089546,131.316158 908.337083,131.222482 909.733579,131.11007 L910.254937,132.309133 C908.839821,132.459016 907.406085,132.608899 905.990969,132.777517 L905.990969,131.409836 Z M905.990969,122.716627 L907.946063,127.100702 C907.257126,127.156909 906.605427,127.213114 905.990969,127.269321 L905.990969,122.716627 Z M913.587909,119.119437 L917.609818,126.332553 C916.157462,126.426229 914.816826,126.519906 913.587909,126.632319 L913.587909,119.119437 Z M921.147609,115.035129 L927.366673,125.69555 C925.150899,125.826697 923.065464,125.957845 921.147609,126.088993 L921.147609,115.035129 Z M927.906652,110.42623 L927.906652,125.039812 L921.445528,113.929742 C923.121324,112.955503 925.318478,111.775176 927.906652,110.42623 Z M935.484972,122.473068 L935.484972,125.283372 C933.883656,125.339578 932.30096,125.433255 930.792744,125.508197 C931.723742,124.908665 932.654739,124.271663 933.622977,123.672131 C934.218815,123.278688 934.851894,122.86651 935.484972,122.473068 Z M928.707309,110.857142 L935.187053,121.067915 C934.423634,121.555035 933.641596,122.042154 932.859558,122.548009 C931.444442,123.466042 930.047946,124.384075 928.707309,125.283372 L928.707309,110.857142 Z M935.484972,106.772833 L935.484972,120.037471 L929.042469,109.864169 C930.978944,108.88993 933.138858,107.840749 935.484972,106.772833 Z M936.285629,121.967213 C938.426924,120.637002 940.698558,119.288056 943.063292,117.93911 L943.063292,124.9274 C940.717178,125.021077 938.464164,125.133489 936.285629,125.227166 L936.285629,121.967213 Z M936.285629,107.14754 L942.728133,116.590164 C940.586839,117.807962 938.445544,119.063232 936.285629,120.374707 L936.285629,107.14754 Z M943.063292,103.494145 L943.063292,115.63466 L936.658028,106.248243 C938.650364,105.348945 940.810277,104.412177 943.063292,103.494145 Z M943.88257,117.489461 C946.042484,116.290398 948.295498,115.091335 950.641612,113.911007 L950.641612,124.627634 C948.295498,124.721311 946.042484,124.814988 943.88257,124.908665 L943.88257,117.489461 Z M943.88257,103.831381 L950.269213,112.562061 C948.127919,113.629976 946.005244,114.754098 943.88257,115.934425 L943.88257,103.831381 Z M944.720467,102.819672 C946.563843,102.088993 948.556177,101.320843 950.641612,100.571428 L950.641612,111.681498 L944.254969,103.007025 C944.422548,102.950819 944.571507,102.875877 944.720467,102.819672 Z M951.44227,113.498829 C953.620804,112.412178 955.873818,111.344262 958.201312,110.313817 L958.201312,124.384075 C955.873818,124.459016 953.620804,124.533958 951.44227,124.608899 L951.44227,113.498829 Z M951.44227,100.740047 L957.773053,109.002342 C955.650378,109.957845 953.546324,110.932084 951.44227,111.981264 L951.44227,100.740047 Z M958.201312,97.9859482 L958.201312,108.271662 L951.945008,100.103044 C953.955963,99.3911004 956.022777,98.6791566 958.201312,97.9859482 Z M959.02059,109.957845 C961.217745,109.002342 963.470758,108.084309 965.779632,107.185011 L965.779632,124.177985 C963.452139,124.234192 961.199124,124.290398 959.02059,124.365339 L959.02059,109.957845 Z M959.02059,98.1358311 L965.351374,105.873536 C963.247319,106.679157 961.124644,107.540983 959.02059,108.459016 L959.02059,98.1358311 Z M965.779632,95.7377047 L965.779632,105.142857 L959.579189,97.5550349 C961.590144,96.9367679 963.656958,96.3372362 965.779632,95.7377047 Z M966.58029,106.885245 C968.796065,106.042154 971.067699,105.255269 973.376573,104.505855 L973.376573,124.009368 C971.049078,124.065573 968.796065,124.103044 966.58029,124.159251 L966.58029,106.885245 Z M966.58029,95.9812643 L972.855214,103.194379 C971.291138,103.718969 969.727062,104.243559 968.162986,104.824355 C967.623007,105.011709 967.120269,105.199063 966.58029,105.386416 L966.58029,95.9812643 Z M973.376573,93.8079622 L973.376573,102.538641 L967.138888,95.3629974 C969.149843,94.8384072 971.216658,94.313817 973.376573,93.8079622 Z M974.17723,104.243559 C976.393005,103.531616 978.646019,102.875877 980.936272,102.276347 L980.936272,123.87822 C978.627399,123.91569 976.374384,123.953161 974.17723,123.990632 L974.17723,104.243559 Z M974.17723,94.107728 L980.601113,100.927401 C978.459819,101.489462 976.318525,102.107728 974.17723,102.782201 L974.17723,94.107728 Z M980.936272,92.2154564 L980.936272,100.12178 L974.717209,93.5081964 C976.728164,93.0398124 978.832218,92.608899 980.936272,92.2154564 Z M981.736931,102.070257 C983.952704,101.489462 986.205719,100.964871 988.495973,100.515222 L988.495973,123.765807 C986.205719,123.784543 983.952704,123.822014 981.736931,123.859485 L981.736931,102.070257 Z M981.736931,92.4590161 L988.030474,99.2037468 C985.94504,99.6346601 983.840985,100.103044 981.736931,100.64637 L981.736931,92.4590161 Z M988.495973,90.9414517 L988.495973,98.5292737 L982.370009,91.9531613 C984.380964,91.578454 986.429159,91.2412175 988.495973,90.9414517 Z M989.315251,100.346604 C991.531025,99.9156906 993.802659,99.5222479 996.074293,99.2224821 L996.074293,123.690866 C993.765419,123.709602 991.512405,123.747073 989.315251,123.747073 L989.315251,100.346604 Z M989.315251,91.6533955 L995.403974,97.9484775 C993.39302,98.2295079 991.344826,98.5667444 989.315251,98.960187 L989.315251,91.6533955 Z M996.074293,90.0046836 L996.074293,97.4800934 L989.59455,90.7915689 C991.735844,90.4918031 993.877138,90.229508 996.074293,90.0046836 Z M996.874951,99.1100699 C999.109345,98.8103041 1001.36236,98.5854798 1003.67123,98.4168616 L1003.67123,123.653395 C1001.36236,123.653395 999.109345,123.672131 996.874951,123.690866 L996.874951,99.1100699 Z M996.874951,90.3231848 L1002.9823,97.1053861 C1000.95272,97.255269 998.923146,97.4800934 996.874951,97.7423885 L996.874951,90.3231848 Z M1003.67123,89.4238873 L1003.67123,96.6557374 L997.545269,89.8735361 C999.574844,89.6861824 1001.60441,89.5362995 1003.67123,89.4238873 Z M1004.47189,98.3606555 C1006.70629,98.2107726 1008.9593,98.1170958 1011.23094,98.0983604 L1011.23094,123.63466 C1008.94068,123.63466 1006.68767,123.63466 1004.47189,123.653395 L1004.47189,98.3606555 Z M1004.47189,89.7985946 L1010.52337,96.7681496 C1008.4938,96.7868849 1006.50146,96.8618264 1004.47189,96.9929739 L1004.47189,89.7985946 Z M1011.23094,89.199063 L1011.23094,96.3559716 L1005.14221,89.3489459 C1007.15317,89.255269 1009.18274,89.2177983 1011.23094,89.199063 Z M1012.05021,123.63466 L1012.05021,98.0983604 C1014.32184,98.1170958 1016.57486,98.2107726 1018.80925,98.3606555 L1018.80925,123.653395 C1016.59348,123.63466 1014.34046,123.63466 1012.05021,123.63466 Z M1018.80925,89.7985946 L1018.80925,96.9929739 C1016.77968,96.8618264 1014.7501,96.7868849 1012.75776,96.7681496 L1018.80925,89.7985946 Z M1012.05021,89.199063 C1014.07979,89.2177983 1016.12798,89.255269 1018.12031,89.3489459 L1012.05021,96.3559716 L1012.05021,89.199063 Z M1019.60991,98.4168616 C1021.88155,98.5854798 1024.13456,98.8103041 1026.36896,99.1100699 L1026.36896,123.690866 C1024.1718,123.672131 1021.91879,123.653395 1019.60991,123.653395 L1019.60991,98.4168616 Z M1026.36896,90.3231848 L1026.36896,97.7423885 C1024.33938,97.4800934 1022.30981,97.255269 1020.28023,97.1053861 L1026.36896,90.3231848 Z M1019.60991,89.4238873 C1021.65811,89.5362995 1023.7063,89.6861824 1025.69864,89.8735361 L1019.60991,96.6557374 L1019.60991,89.4238873 Z M1027.18823,99.2224821 C1029.45987,99.5222479 1031.7315,99.9156906 1033.96589,100.346604 L1033.96589,123.747073 C1031.7315,123.747073 1029.47849,123.709602 1027.18823,123.690866 L1027.18823,99.2224821 Z M1033.96589,91.6533955 L1033.96589,98.960187 C1031.9177,98.5667444 1029.88812,98.2295079 1027.83993,97.9484775 L1033.96589,91.6533955 Z M1027.18823,90.0046836 C1029.36677,90.229508 1031.5453,90.4918031 1033.66797,90.7915689 L1027.18823,97.4800934 L1027.18823,90.0046836 Z M1034.74793,100.515222 C1037.03818,100.964871 1039.30982,101.489462 1041.52559,102.070257 L1041.52559,123.859485 C1039.32844,123.822014 1037.07543,123.784543 1034.74793,123.765807 L1034.74793,100.515222 Z M1041.52559,92.4590161 L1041.52559,100.64637 C1039.42154,100.103044 1037.31748,99.6346601 1035.23205,99.2037468 L1041.52559,92.4590161 Z M1034.74793,90.9414517 C1036.83337,91.2412175 1038.88156,91.578454 1040.91114,91.9531613 L1034.74793,98.5292737 L1034.74793,90.9414517 Z M1042.34487,102.276347 C1044.63513,102.875877 1046.88814,103.531616 1049.10392,104.243559 L1049.10392,123.990632 C1046.90676,123.953161 1044.65375,123.91569 1042.34487,123.87822 L1042.34487,102.276347 Z M1049.10392,94.107728 L1049.10392,102.782201 C1046.96262,102.107728 1044.82132,101.489462 1042.66141,100.927401 L1049.10392,94.107728 Z M1042.34487,92.2154564 C1044.44892,92.608899 1046.53436,93.0398124 1048.58255,93.5081964 L1042.34487,100.12178 L1042.34487,92.2154564 Z M1049.90458,104.505855 C1052.21344,105.255269 1054.46646,106.042154 1056.68223,106.885245 L1056.68223,124.159251 C1054.48508,124.103044 1052.21344,124.065573 1049.90458,124.009368 L1049.90458,104.505855 Z M1056.68223,95.9812643 L1056.68223,105.386416 C1056.16088,105.199063 1055.63952,105.011709 1055.09954,104.824355 C1053.53546,104.243559 1051.97139,103.718969 1050.38869,103.194379 L1056.68223,95.9812643 Z M1049.90458,93.8079622 C1052.02725,94.313817 1054.1313,94.8384072 1056.14226,95.3629974 L1049.90458,102.538641 L1049.90458,93.8079622 Z M1057.48289,107.185011 C1059.79177,108.084309 1062.04478,109.002342 1064.24193,109.957845 L1064.24193,124.365339 C1062.0634,124.290398 1059.81039,124.234192 1057.48289,124.177985 L1057.48289,107.185011 Z M1064.24193,98.1358311 L1064.24193,108.459016 C1062.13788,107.540983 1060.03382,106.679157 1057.92977,105.873536 L1064.24193,98.1358311 Z M1057.48289,95.7377047 C1059.60556,96.3372362 1061.691,96.9367679 1063.68334,97.5550349 L1057.48289,105.142857 L1057.48289,95.7377047 Z M1065.04259,110.313817 C1067.37009,111.344262 1069.64172,112.412178 1071.83888,113.498829 L1071.83888,124.608899 C1069.66034,124.533958 1067.38871,124.459016 1065.04259,124.384075 L1065.04259,110.313817 Z M1071.83888,100.740047 L1071.83888,111.981264 C1069.7162,110.932084 1067.61215,109.957845 1065.5081,109.002342 L1071.83888,100.740047 Z M1065.04259,97.9859482 C1067.23975,98.6791566 1069.32518,99.3911004 1071.2989,100.103044 L1065.04259,108.271662 L1065.04259,97.9859482 Z M1072.63953,113.911007 C1074.98565,115.091335 1077.23866,116.290398 1079.39857,117.489461 L1079.39857,124.908665 C1077.23866,124.814988 1074.98565,124.721311 1072.63953,124.627634 L1072.63953,113.911007 Z M1072.63953,100.571428 C1074.72497,101.320843 1076.69869,102.088993 1078.56068,102.819672 C1078.70964,102.875877 1078.8586,102.950819 1078.98893,103.007025 L1072.63953,111.681498 L1072.63953,100.571428 Z M1079.39857,103.831381 L1079.39857,115.934425 C1077.2759,114.754098 1075.13461,113.629976 1072.99331,112.562061 L1079.39857,103.831381 Z M1080.19923,117.93911 C1082.58259,119.288056 1084.8356,120.637002 1086.9769,121.967213 L1086.9769,125.227166 C1084.81698,125.133489 1082.56397,125.021077 1080.19923,124.9274 L1080.19923,117.93911 Z M1086.9769,107.14754 L1086.9769,120.374707 C1084.8356,119.063232 1082.6943,117.807962 1080.53439,116.590164 L1086.9769,107.14754 Z M1080.19923,103.494145 C1082.47087,104.412177 1084.61216,105.348945 1086.62312,106.248243 L1080.19923,115.63466 L1080.19923,103.494145 Z M1087.77756,122.473068 C1088.41063,122.86651 1089.06233,123.278688 1089.67679,123.672131 C1090.60778,124.271663 1091.55741,124.908665 1092.46978,125.508197 C1090.96156,125.433255 1089.39749,125.339578 1087.77756,125.283372 L1087.77756,122.473068 Z M1094.5366,110.857142 L1094.5366,125.283372 C1093.19596,124.384075 1091.8367,123.466042 1090.42159,122.548009 C1089.63955,122.042154 1088.85751,121.555035 1088.07547,121.067915 L1094.5366,110.857142 Z M1087.77756,106.772833 C1090.12366,107.840749 1092.28359,108.88993 1094.22005,109.864169 L1087.77756,120.037471 L1087.77756,106.772833 Z M1095.33725,110.42623 C1097.96266,111.775176 1100.1412,112.955503 1101.83562,113.929742 L1095.33725,125.039812 L1095.33725,110.42623 Z M1102.93419,114.54801 C1104.94515,115.728337 1106.06235,116.440281 1106.09958,116.459016 L1106.1182,116.496486 L1109.39532,118.014051 L1104.77757,126.276346 C1104.18173,126.220141 1103.56727,126.18267 1102.93419,126.145199 L1102.93419,114.54801 Z M1110.51252,130.86651 C1111.25732,130.922716 1112.00211,130.978922 1112.69105,131.035129 L1112.18831,132.215456 C1111.61109,132.15925 1111.05249,132.103044 1110.51252,132.046838 L1110.51252,130.86651 Z M1110.51252,118.519906 L1116.95501,121.498829 L1114.47856,127.007026 C1113.28689,126.913349 1111.96487,126.800936 1110.51252,126.688524 L1110.51252,118.519906 Z M882.269151,132.758782 L882.082952,132.571428 L882.269151,132.571428 L882.269151,132.758782 Z M882.269151,134.426229 L881.170573,135.531616 L879.811317,134.163934 L881.170573,132.796253 L882.269151,133.901639 L882.269151,134.426229 Z M882.269151,135.793911 L882.045712,135.793911 L882.269151,135.569087 L882.269151,135.793911 Z M882.269151,148.215457 L873.778453,148.215457 L873.778453,137.442623 C877.185904,137.311475 880.053376,137.180328 882.269151,137.067916 L882.269151,148.215457 Z M872.102657,134.163934 L873.461914,132.796253 L874.82117,134.163934 L873.461914,135.531616 L872.102657,134.163934 Z M870.482722,135.793911 L871.544059,134.725995 L872.605396,135.793911 L870.482722,135.793911 Z M871.767498,148.215457 L870.091702,148.215457 L870.091702,139.672131 L869.793783,139.278689 L867.484909,139.278689 L867.484909,137.854801 L867.838689,137.854801 L867.838689,137.704918 C869.216565,137.648711 870.519962,137.592506 871.767498,137.536299 L871.767498,148.215457 Z M867.838689,134.894613 L868.732446,135.793911 L867.838689,135.793911 L867.838689,134.894613 Z M867.838689,132.758782 C868.062128,132.758782 868.304187,132.740046 868.527627,132.740046 L867.838689,133.433255 L867.838689,132.758782 Z M870.966841,134.163934 L869.607584,135.531616 L868.248328,134.163934 L869.607584,132.796253 L870.966841,134.163934 Z M872.456437,132.683841 L871.544059,133.583138 L870.668921,132.702575 C871.26476,132.702575 871.860598,132.683841 872.456437,132.683841 Z M876.366627,132.608899 L875.398389,133.583138 L874.448771,132.64637 C875.10047,132.627634 875.733548,132.627634 876.366627,132.608899 Z M876.441107,135.793911 L874.337052,135.793911 L875.398389,134.725995 L876.441107,135.793911 Z M878.6755,134.163934 L877.316244,135.531616 L875.956988,134.163934 L877.316244,132.796253 L878.6755,134.163934 Z M880.314056,135.793911 L878.191381,135.793911 L879.252719,134.725995 L880.314056,135.793911 Z M880.276816,132.571428 L879.252719,133.583138 L878.247241,132.590163 C878.936179,132.590163 879.606497,132.590163 880.276816,132.571428 Z M720.890034,140.515223 L720.647974,140.234192 L722.17481,138.510538 C723.031328,138.454333 723.887845,138.416862 724.744363,138.379391 L720.890034,140.515223 Z M719.921796,141.039812 L720.294195,140.64637 L720.405915,140.777517 L719.921796,141.039812 Z M718.50668,141.826697 L717.743261,142.257611 L717.743261,142.688524 C717.277763,142.70726 716.775024,142.725994 716.309525,142.74473 L714.31719,140.515223 L715.844026,138.810304 C716.719164,138.772833 717.631542,138.716628 718.54392,138.679157 L719.921796,140.234192 L718.50668,141.826697 Z M712.194516,142.913348 L713.963411,140.908665 L715.620587,142.782201 C714.46615,142.819672 713.348953,142.857143 712.194516,142.913348 Z M698.918491,150.426229 L688.751997,150.426229 L688.751997,147.128805 L687.69066,147.128805 L687.69066,145.442623 C692.662187,145.236533 698.155073,144.992974 704.057597,144.749414 L704.113457,144.824355 L704.206557,144.749414 C706.198892,144.655737 708.247087,144.56206 710.332521,144.468384 L710.444241,144.580796 L710.555961,144.468384 C711.933836,144.412177 713.311713,144.355972 714.689589,144.299765 L698.918491,150.426229 Z M662.181326,141.470726 L663.093705,142.50117 L660.747591,145.161592 C660.542772,145.180328 660.337952,145.180328 660.133133,145.199062 L660.133133,141.583138 C660.654491,141.564402 661.343429,141.526931 662.181326,141.470726 Z M664.099182,141.377048 L663.447483,142.107728 L662.870265,141.45199 C663.242664,141.414519 663.670923,141.395784 664.099182,141.377048 Z M668.43763,141.152224 L669.405868,142.276346 L667.078374,144.880562 C666.724595,144.899297 666.333576,144.918033 665.961177,144.936767 L663.819882,142.50117 L664.84398,141.339578 C665.923937,141.283372 667.096994,141.227165 668.43763,141.152224 Z M670.485825,141.058548 L669.778267,141.864168 L669.107949,141.114753 C669.554827,141.096018 670.020327,141.077282 670.485825,141.058548 Z M674.656694,140.833723 L675.718031,142.051521 L674.451874,143.494145 L672.73884,143.494145 L672.73884,144.637002 C672.57126,144.637002 672.4223,144.655737 672.254721,144.655737 L670.113426,142.276346 L671.249244,141.021077 C672.329201,140.946135 673.446398,140.908665 674.656694,140.833723 Z M676.909708,140.721311 L676.09043,141.639343 L675.345632,140.814987 C675.848371,140.777517 676.351109,140.758782 676.909708,140.721311 Z M676.909708,142.557377 L676.425589,142.051521 L676.909708,141.526931 L676.909708,142.557377 Z M688.360978,141.470726 L687.69066,142.22014 L687.69066,140.721311 L688.360978,141.470726 Z M689.571275,140.084309 L688.714758,141.058548 L687.914099,140.15925 C688.472698,140.140515 689.012677,140.121779 689.571275,140.084309 Z M687.69066,143.02576 L688.714758,141.882904 L690.465033,143.868852 C689.534035,143.906323 688.621657,143.943794 687.69066,143.981264 L687.69066,143.02576 Z M676.909708,143.494145 L675.159432,143.494145 L676.09043,142.463699 L676.909708,143.362997 L676.909708,143.494145 Z M667.841792,144.843091 L669.778267,142.669789 L671.565782,144.693208 C670.318246,144.749414 669.089329,144.80562 667.841792,144.843091 Z M661.492389,145.124121 L663.447483,142.913348 L665.272238,144.955503 C664.006082,145.011709 662.758545,145.067915 661.492389,145.124121 Z M672.73884,146.079625 L672.73884,146.510538 L670.597545,146.510538 L670.597545,148.065574 L660.133133,148.065574 L660.133133,146.62295 C662.106847,146.548009 666.482536,146.360655 672.73884,146.079625 Z M693.276645,139.896955 L694.673142,141.470726 L692.643567,143.75644 C692.140829,143.793911 691.65671,143.812646 691.153971,143.831381 L689.068536,141.470726 L690.316073,140.046838 C691.30293,140.009367 692.289788,139.953162 693.276645,139.896955 Z M696.181358,139.747072 L695.008301,141.058548 L693.965584,139.87822 C694.691762,139.840749 695.43656,139.803279 696.181358,139.747072 Z M696.535137,143.606557 C695.49242,143.644028 694.431082,143.681499 693.369746,143.737704 L695.008301,141.882904 L696.535137,143.606557 Z M699.495709,139.597189 L700.985305,141.302107 L699.030211,143.494145 C698.434372,143.51288 697.838534,143.55035 697.242696,143.569086 L695.3807,141.470726 L696.944776,139.728337 C697.782674,139.690867 698.639191,139.63466 699.495709,139.597189 Z M702.623861,139.447306 L701.339084,140.871194 L700.184647,139.559719 C700.985305,139.522248 701.785963,139.484777 702.623861,139.447306 Z M702.79144,143.325526 C701.785963,143.362997 700.780485,143.419203 699.775008,143.456674 L701.339084,141.69555 L702.79144,143.325526 Z M705.733393,139.297423 L707.297469,141.058548 L705.379614,143.213114 C704.746536,143.250585 704.113457,143.269321 703.480379,143.288055 L701.711483,141.302107 L703.368659,139.409836 C704.150697,139.372365 704.951355,139.334894 705.733393,139.297423 Z M708.991885,139.128806 L707.651248,140.64637 L706.422331,139.259953 C707.278849,139.222482 708.135367,139.185011 708.991885,139.128806 Z M709.066365,143.063231 C708.098127,143.100702 707.111269,143.138172 706.124412,143.175643 L707.651248,141.470726 L709.066365,143.063231 Z M712.250376,138.978923 L713.591012,140.515223 L711.449718,142.950819 C710.89112,142.969555 710.332521,142.98829 709.755302,143.02576 L708.023647,141.058548 L709.736683,139.091335 C710.57458,139.053864 711.412479,139.016393 712.250376,138.978923 Z M715.080609,138.847775 L713.963411,140.103045 L712.939314,138.941452 C713.646872,138.903981 714.35443,138.885245 715.080609,138.847775 Z M721.430012,138.529274 L720.294195,139.822014 L719.232857,138.641686 C719.959036,138.604215 720.685214,138.566745 721.430012,138.529274 Z M232.76801,40.1311474 L225.822769,39.0070257 L225.785529,33.4426229 L232.76801,34.5667446 L232.76801,40.1311474 Z M232.76801,46.5199062 L225.878629,45.3957844 L225.841389,39.8313816 L232.76801,40.9555034 L232.76801,46.5199062 Z M232.76801,52.9086649 L225.934489,51.8032786 L225.878629,46.2201404 L232.76801,47.3442621 L232.76801,52.9086649 Z M232.76801,59.2974237 L231.930113,59.2974237 L227.610284,58.5854799 L227.610284,54.0140514 L225.953109,54.0140514 L225.934489,52.6276345 L232.76801,53.7330209 L232.76801,59.2974237 Z M230.049497,62.3138172 L228.578522,62.3138172 L228.578522,62.8571426 L227.610284,62.8571426 L227.610284,59.1475408 L230.049497,59.5409835 L230.049497,62.3138172 Z M225.245551,45.6393441 L222.936677,45.995316 L225.245551,40.9742388 L225.245551,45.6393441 Z M225.245551,54.0140514 L222.843577,54.0140514 L222.843577,52.6088991 L222.527038,52.6088991 L222.527038,46.8384074 L222.657377,46.5761123 L225.245551,46.1826697 L225.245551,54.0140514 Z M222.005679,52.6088991 L219.901624,52.6088991 L222.005679,48.0187352 L222.005679,52.6088991 Z M208.692414,79.4192035 L207.556596,79.4192035 L208.692414,76.9086649 L208.692414,79.4192035 Z M206.774558,85.9578451 L204.540164,85.9578451 L206.774558,81.1241215 L206.774558,85.9578451 Z M1200,129.854305 L1197.84009,129.124121 L1196.05257,127.456675 L1193.76232,126.014051 L1192.4403,121.779859 L1192.2541,126.051522 L1188.13909,126.857143 L1188.13909,127.419204 L1187.69221,133.096019 L1187.26395,127.007026 L1186.01642,123.953161 L1183.78203,122.379391 L1182.88826,121.461358 L1178.49396,121.461358 L1174.19274,121.142857 L1174.19274,118.875878 L1173.91345,121.161592 L1172.64729,120.149883 L1165.70205,120.149883 L1165.70205,120.955503 L1164.17521,123.278688 L1163.07663,125.751756 L1162.77872,128.468383 L1161.23326,129.442622 L1140.99338,128.224824 L1140.99338,119.456674 L1140.80717,117.957845 L1140.00651,114.379391 L1139.67136,113.030445 L1138.57278,111.456674 L1131.32962,111.456674 L1131.32962,112.730679 L1123.73268,112.52459 L1123.73268,113.81733 L1122.61548,115.466042 L1122.29894,118.632318 L1121.49828,120.355971 L1121.31209,122.023419 L1106.78853,115.316159 C1106.04373,114.829039 1095.54207,108.15925 1079.08203,101.583138 C1063.53438,95.3817328 1039.34706,87.9999998 1012.05021,87.8501169 C1011.75229,87.8501169 1011.58472,84.8587039 1011.54748,78.875878 L1009.29446,81.4238873 L1009.40617,82.8665103 L1011.23094,81.5175642 L1011.23094,87.8501169 C983.915465,87.9999998 959.728148,95.3817328 944.180489,101.583138 C927.720452,108.15925 917.237419,114.829039 916.492621,115.316159 L901.969059,122.023419 L901.969059,120.543325 L901.78286,119.044496 L900.982202,115.466042 L900.628423,114.117096 L899.548466,112.52459 L892.286684,112.52459 L891.951525,111.456674 L884.708364,111.456674 L884.708364,112.730679 L883.591167,114.379391 L883.274628,117.545667 L882.455351,119.26932 L882.269151,128.224824 C882.269151,128.224824 875.13771,128.562061 863.425761,129.124121 L861.582385,125.920375 L868.155227,115.87822 C868.155227,115.87822 860.316228,115.035129 852.886868,116.983606 L852.886868,114.791569 L847.524322,114.379391 L849.944915,107.128805 C849.944915,107.128805 841.919717,107.128805 835.961332,111.119437 L835.123435,105.648711 L832.646981,106.023419 L828.755411,120.093676 C828.755411,120.093676 833.07524,101.133489 836.55717,94.107728 C836.55717,94.107728 827.843033,96.1686179 820.823311,101.69555 L821.195711,92.4777515 C821.195711,92.4777515 797.101494,95.7939108 786.637082,119.231849 C786.637082,119.231849 783.974428,118.875878 781.833134,119.175644 C781.833134,119.175644 770.698403,111.175644 753.903207,115.278688 L757.012738,128.03747 C757.012738,128.03747 750.793675,128.03747 742.228498,131.953161 C742.228498,131.953161 732.359923,126.819672 717.389483,127.962529 C717.389483,127.962529 723.180287,133.733021 724.874702,135.700234 C711.095939,136.355972 698.341272,136.955503 687.69066,137.442623 L687.69066,130.266978 L679.386162,130.266978 L679.386162,135.456674 L676.909708,137.948477 C669.405868,138.30445 663.633683,138.566745 660.133133,138.716628 L660.133133,137.405152 L656.651201,136.337236 L655.478145,127.175644 L653.61615,126.351288 L653.61615,122.360656 L652.815491,124.683841 L651.921733,122.360656 L650.748677,121.236534 L649.50114,123.578454 L648.886682,122.941451 L648.886682,118.838407 L647.415706,123.934426 L643.151737,123.934426 L643.151737,117.170959 L638.925008,117.170959 L638.925008,107.466042 L638.273309,112.768149 L637.360932,114.023419 L637.360932,117.058547 L636.374074,120.149883 L632.035626,120.149883 L632.035626,117.995315 L630.21087,119.47541 L623.768367,119.47541 L622.390492,121.274005 L621.813273,118.22014 L620.863655,121.367681 L617.102425,121.367681 L617.102425,118.894613 L615.985228,123.016393 L613.173615,119.344262 L608.537247,116.365339 L599.89759,116.365339 L599.89759,115.747072 L592.52409,115.747072 L592.52409,91.7658077 C591.257933,91.372365 584.256831,88.0749412 577.888807,88.0749412 C572.246962,88.0749412 571.651124,91.2974236 571.651124,91.2974236 L571.651124,92.5339576 L570.552547,114.210773 L569.62155,115.765808 L569.044331,104.299765 L566.847176,101.058548 L566.847176,88.0749412 L565.096901,86.5948475 L563.421105,85.9203744 L563.421105,84.1967211 L561.130851,83.4285711 L557.276522,83.4285711 L555.079368,84.140515 L555.079368,84.6651051 L553.738731,86.0140512 L551.578817,86.3887585 L551.578817,87.6814986 L550.03336,101.227166 L546.60729,97.3114751 L542.101262,95.9812643 L539.457228,91.2974236 L539.177929,96.0374704 L536.571135,96.6557374 L535.770478,63.0632316 L525.697084,63.0632316 L525.697084,62.1077282 L524.002668,62.7259951 L509.963225,62.7259951 L502.161466,62.3887586 L502.161466,62.8946134 L495.718963,62.8946134 L495.718963,69.5644026 L493.074929,68.4215454 L490.412277,69.3021075 L489.574378,70.0327867 L489.05302,78.9133487 L487.377224,73.5175642 L487.004825,78.9695548 L482.815336,78.9695548 L482.815336,68.0843089 L482.610517,78.9695548 L478.327928,78.9695548 L477.787949,81.1615922 L476.540413,83.1475407 L470.414448,84.4402808 L468.180055,93.4332549 L465.424302,74.3606555 L463.376107,73.9110068 L464.418825,72.5995314 L464.642264,69.8829038 L458.25562,67.8782199 L456.654305,67.2786884 L456.207426,67.8220138 L451.850358,67.8220138 L448.833925,69.7704916 L448.833925,72.2060888 L450.100082,73.0117093 L447.586388,74.0608897 L447.586388,113.311476 L444.663056,119.606557 L443.06174,118.032786 L442.633482,119.51288 L442.186603,96.9180325 L441.665244,94.4262292 L441.944543,35.5971896 L441.199745,33.0491802 L441.460424,30.6885245 L432.615948,26.9227165 L432.615948,23.9812646 L432.00149,25.4238875 L431.070492,26.2295081 L431.070492,27.1475409 L409.024469,29.7142856 L409.024469,31.3255269 L409.452728,34.3044496 L409.024469,80.2248242 L405.765978,75.6346602 C405.765978,75.6346602 404.779121,73.9110068 401.576489,73.9110068 C398.355237,73.9110068 392.694773,73.9110068 392.694773,73.9110068 L392.694773,70.0702574 L392.452713,73.8548007 L390.348659,28.5526931 L388.319083,19.7658079 L386.289509,13.1147541 L382.714478,13.8266979 L382.714478,11.7283372 L377.891911,12.6088993 L377.891911,11.7283372 L374.968578,12.1779859 L372.343166,11.2974239 L372.343166,0 L371.989386,13.3208431 L365.714463,11.9344262 L365.714463,14.4637002 L360.184337,13.4145199 L360.184337,15.3442623 L358.043042,19.5035128 L356.087948,28.1592505 L354.225953,28.5526931 L354.225953,70.5573768 L353.183236,65.7985946 L349.124086,64.7868851 L343.202942,64.2060888 L339.665151,60.2154565 L335.363942,59.4847774 L328.84696,60.1030444 L328.84696,29.9203746 C328.84696,29.9203746 317.00467,33.967213 309.72427,42.229508 C309.72427,42.229508 300.507394,44.1592505 292.165655,51.5784542 L289.614722,51.1475408 C289.614722,51.1475408 289.558862,55.9812645 290.098841,61.5269319 C290.638819,67.053864 291.439478,76.3653393 291.439478,76.3653393 L289.465763,77.8829038 L286.803109,66.4918031 L287.156889,65.7985946 L286.803109,31.6065573 L284.829394,31.1194379 L284.829394,27.3536299 L284.065977,26.8103044 L284.065977,22.5386416 L283.116359,18.3981264 L282.352941,9.12412175 L281.608143,18.1733021 L280.565426,18.9039812 L280.565426,20.3091334 L279.224789,22.2201404 L274.234642,23.1943793 L274.234642,28.1217798 L272.763666,30.763466 L260.604838,33.4238875 L260.604838,37.6018734 L257.104287,89.0117093 L258.035285,92.3278686 L253.343057,92.3278686 L253.343057,95.6440279 L240.290471,96.9180325 L240.290471,100.290398 L238.577435,59.7096017 L236.603721,59.2974237 L233.177649,18.1733021 L232.76801,33.7423887 L225.766909,32.6182669 L225.636569,15.9437939 L225.245551,39.0444964 L219.007866,52.6088991 L214.01772,52.6088991 L214.01772,53.789227 L210.759228,53.4519905 L210.759228,54.0140514 L208.692414,54.5573769 L208.692414,74.9601872 L203.646407,85.9578451 L203.609167,103.156908 L201.132713,102.651053 L200.778935,103.288055 L200.369296,88.786885 L199.829317,87.9437937 L200.313436,84.1779857 L193.107515,83.5597187 L193.107515,83.0351286 L182.531382,82.7166274 L175.921299,83.4660419 L175.921299,87.3442621 L176.368178,88.0749412 L175.921299,102.74473 L174.003445,102.351287 L174.003445,96.5995313 L175.362701,95.2505852 L174.059304,78.5948475 L174.487564,76.964871 L174.059304,64.318501 L175.642001,63.0632316 L177.708815,62.4637001 L177.708815,59.0725994 L178.081214,55.1943792 L176.740577,54.3887586 L176.144739,48.6182668 L175.325461,47.23185 L173.109687,46.6510538 L172.755908,38.5948477 L172.811768,36.8711943 L172.569708,38.5199062 L172.625568,46.4449648 L172.271789,47.23185 L169.255357,48.6182668 L169.255357,54.1264636 L168.640899,55.1943792 L167.337502,58.9039811 L167.672661,62.4637001 L168.566419,63.0632316 L169.739475,63.9250584 L171.322172,76.964871 L170.893912,78.5948475 L171.322172,95.2505852 L170.018775,96.5995313 L171.378031,102.351287 L157.897187,102.688524 L157.897187,92.4402808 L153.800798,92.4402808 L153.800798,89.5737702 L151.845703,87.6065571 L150.784365,86.875878 L149.350629,85.6206087 L148.624451,84.4028101 L145.29148,82.5480092 L144.993561,72.1873534 L144.788741,82.5854799 L144.416342,84.2341918 L141.45577,85.2271661 L139.184136,86.051522 L139.407575,87.4379389 L137.89936,88.1311473 L137.89936,89.4426227 L135.385665,91.7096016 L127.863205,92.964871 L127.863205,108.121779 L127.267366,107.503513 L125.386752,108.309133 L123.710956,107.63466 L123.208218,108.252927 L121.942061,121.199063 L119.223548,113.030445 L115.071298,112.693208 L115.071298,107.87822 L114.56856,108.571428 L113.060345,104.599531 L112.762425,106.660421 L111.645228,107.372365 L111.645228,107.87822 L105.146864,107.87822 L105.146864,108.552693 L103.620028,116.459016 L102.204912,117.770491 L102.204912,119.288056 L98.7043616,115.503513 L95.2224308,115.915691 L91.7777398,122.135831 L87.84893,121.686183 L87.84893,124.964871 L85.6145359,125.901639 L85.6145359,126.482436 L81.2202274,126.482436 L80.7361087,127.344262 L65.0581097,127.344262 L64.0153925,128.412178 L61.0548202,123.11007 L49.64079,123.11007 L48.933232,123.822014 L48.933232,136.262295 L47.8905146,134.98829 L44.6134032,135.662763 L40.2563346,135.662763 L40.2563346,140.833723 L27.3899483,140.833723 L24.5410957,143.081967 L24.5410957,143.981264 L15.0635406,143.981264 L15.0635406,146.229508 L13.369125,140.552693 L10.2223532,141.377048 L4.43154841,141.377048 L4.43154841,149.021077 L0,150.95082 L0,152 L901.969059,152 L901.969059,149.002342 C903.365555,147.559718 910.459757,140.459016 921.631728,132.028102 C965.314134,128.3185 1011.10059,129.274004 1011.62196,129.292739 C1011.62196,129.292739 1057.96701,128.3185 1101.63079,132.028102 C1112.82138,140.459016 1119.89697,147.559718 1121.31209,149.002342 L1121.31209,152 L1200,152 L1200,133.358314 L1200,129.854305 Z" id="Fill-26" fill="#0477BF" fill-rule="nonzero"></path>
    </g>
</svg>
