<?xml version="1.0" standalone="no"?>
<!DOCTYPE svg PUBLIC "-//W3C//DTD SVG 20010904//EN"
 "http://www.w3.org/TR/2001/REC-SVG-20010904/DTD/svg10.dtd">
<svg version="1.0" xmlns="http://www.w3.org/2000/svg"
 width="700.000000pt" height="700.000000pt" viewBox="0 0 700.000000 700.000000"
 preserveAspectRatio="xMidYMid meet">
<metadata>
Created by potrace 1.11, written by Peter Selinger 2001-2013
</metadata>
<g transform="translate(0.000000,700.000000) scale(0.100000,-0.100000)"
fill="#000000" stroke="none">
<path d="M1853 6648 c-18 -5 -39 -18 -48 -31 -18 -26 -1045 -3115 -1045 -3143
1 -10 6 -29 13 -40 7 -12 598 -703 1314 -1537 961 -1117 1312 -1519 1339
-1532 44 -21 112 -22 150 -2 16 9 48 35 70 59 125 131 2585 3013 2590 3035 5
20 -124 421 -505 1572 -282 850 -521 1560 -530 1576 -30 53 -113 63 -161 20
-10 -9 -152 -297 -316 -640 l-299 -625 -925 0 -925 0 -299 625 c-164 343 -307
631 -316 640 -25 23 -71 33 -107 23z m211 -2575 c146 -36 265 -112 401 -254
251 -265 429 -682 549 -1294 62 -312 99 -590 157 -1167 25 -251 24 -265 -32
-293 -44 -24 -88 -13 -131 33 -27 28 -1601 1872 -1950 2284 -88 103 -88 130
-6 230 118 144 311 305 453 380 189 99 380 127 559 81z m3236 -4 c149 -38 323
-142 490 -291 66 -58 185 -191 207 -231 22 -39 15 -81 -20 -123 -185 -219
-1959 -2298 -1985 -2326 -43 -46 -87 -57 -131 -33 -54 27 -56 45 -37 243 82
857 162 1332 293 1737 117 364 262 624 452 810 217 213 457 283 731 214z"/>
<path d="M2005 3241 c-136 -62 -174 -246 -73 -350 141 -145 377 -53 378 147 0
95 -39 158 -125 198 -60 29 -125 31 -180 5z"/>
<path d="M4815 3236 c-86 -40 -125 -103 -125 -198 1 -124 95 -218 217 -218
187 1 289 225 165 363 -71 77 -164 97 -257 53z"/>
</g>
</svg>
